<svg xmlns="http://www.w3.org/2000/svg" viewBox="0 0 16 26"><defs><style>.cls-1{opacity:0.96;}.cls-2{fill:#fff;}</style></defs><title>Asset 3</title><g id="Layer_2" data-name="Layer 2"><g id="icons"><g class="cls-1"><path class="cls-2" d="M3,25.5A2.5,2.5,0,0,1,.5,23V3a2.5,2.5,0,0,1,5,0V23A2.5,2.5,0,0,1,3,25.5Z"/><path class="cls-2" d="M3,1A2,2,0,0,1,5,3V23a2,2,0,0,1-4,0V3A2,2,0,0,1,3,1M3,0A3,3,0,0,0,0,3V23a3,3,0,0,0,6,0V3A3,3,0,0,0,3,0Z"/><path class="cls-2" d="M13,25.5A2.5,2.5,0,0,1,10.5,23V3a2.5,2.5,0,0,1,5,0V23A2.5,2.5,0,0,1,13,25.5Z"/><path class="cls-2" d="M13,1a2,2,0,0,1,2,2V23a2,2,0,0,1-4,0V3a2,2,0,0,1,2-2m0-1a3,3,0,0,0-3,3V23a3,3,0,0,0,6,0V3a3,3,0,0,0-3-3Z"/><path class="cls-2" d="M13,25.5A2.5,2.5,0,0,1,10.5,23V3a2.5,2.5,0,0,1,5,0V23A2.5,2.5,0,0,1,13,25.5Z"/><path class="cls-2" d="M13,1a2,2,0,0,1,2,2V23a2,2,0,0,1-4,0V3a2,2,0,0,1,2-2m0-1a3,3,0,0,0-3,3V23a3,3,0,0,0,6,0V3a3,3,0,0,0-3-3Z"/></g></g></g></svg>