<svg xmlns="http://www.w3.org/2000/svg" viewBox="0 0 18 26"><defs><style>.pause-cls-1{fill:#fff;}</style></defs><title>Asset 4</title><g id="Layer_2" data-name="Layer 2"><g id="icons"><path class="pause-cls-1" d="M3,25.5A2.5,2.5,0,0,1,.5,23V3a2.5,2.5,0,0,1,5,0V23A2.5,2.5,0,0,1,3,25.5Z"/><path class="pause-cls-1" d="M3,1A2,2,0,0,1,5,3V23a2,2,0,0,1-4,0V3A2,2,0,0,1,3,1M3,0A3,3,0,0,0,0,3V23a3,3,0,0,0,6,0V3A3,3,0,0,0,3,0Z"/><path class="pause-cls-1" d="M15,25.5A2.5,2.5,0,0,1,12.5,23V3a2.5,2.5,0,0,1,5,0V23A2.5,2.5,0,0,1,15,25.5Z"/><path class="pause-cls-1" d="M15,1a2,2,0,0,1,2,2V23a2,2,0,0,1-4,0V3a2,2,0,0,1,2-2m0-1a3,3,0,0,0-3,3V23a3,3,0,0,0,6,0V3a3,3,0,0,0-3-3Z"/></g></g></svg>