<svg xmlns="http://www.w3.org/2000/svg" viewBox="0 0 20 30"><defs><style>.cls-1{opacity:0.96;}.cls-2{opacity:0.7;}.cls-3{fill:#fff;}</style></defs><title>Asset 1</title><g id="Layer_2" data-name="Layer 2"><g id="icons"><g class="cls-1"><g class="cls-2"><path class="cls-3" d="M19.61,14.21l-18-14A1,1,0,0,0,1,0,1,1,0,0,0,.56.1,1,1,0,0,0,0,1V29a1,1,0,0,0,.56.9A1,1,0,0,0,1,30a1,1,0,0,0,.61-.21l18-14a1,1,0,0,0,0-1.58Z"/></g><path class="cls-3" d="M19.61,14.21l-18-14A1,1,0,0,0,1,0,1,1,0,0,0,.56.1,1,1,0,0,0,0,1V29a1,1,0,0,0,.56.9A1,1,0,0,0,1,30a1,1,0,0,0,.61-.21l18-14a1,1,0,0,0,0-1.58Z"/></g></g></g></svg>