<svg xmlns="http://www.w3.org/2000/svg" viewBox="0 0 18 26"><defs><style>.play-cls-1{opacity:0.7;}.play-cls-2{fill:#fff;}</style></defs><title>Asset 2</title><g id="Layer_2" data-name="Layer 2"><g id="icons"><g class="play-cls-1"><path class="play-cls-2" d="M17.65,12.32,1.47.18A.94.94,0,0,0,.91,0a1,1,0,0,0-.4.09A.86.86,0,0,0,0,.87V25.13a.86.86,0,0,0,.51.78,1,1,0,0,0,.4.09.94.94,0,0,0,.56-.18L17.65,13.68a.84.84,0,0,0,0-1.36Z"/></g><path class="play-cls-2" d="M17.65,12.32,1.47.18A.94.94,0,0,0,.91,0a1,1,0,0,0-.4.09A.86.86,0,0,0,0,.87V25.13a.86.86,0,0,0,.51.78,1,1,0,0,0,.4.09.94.94,0,0,0,.56-.18L17.65,13.68a.84.84,0,0,0,0-1.36Z"/></g></g></svg>