<svg xmlns="http://www.w3.org/2000/svg" viewBox="0 0 42.5 42.5"><defs><style>.spinner-cls-1,.spinner-cls-2,.spinner-cls-3,.spinner-cls-4,.spinner-cls-5,.spinner-cls-6,.spinner-cls-7,.spinner-cls-8{fill:#fff;isolation:isolate;}.spinner-cls-1{opacity:0.2;}.spinner-cls-2{opacity:0.95;}.spinner-cls-3{opacity:0.88;}.spinner-cls-4{opacity:0.76;}.spinner-cls-5{opacity:0.6;}.spinner-cls-6{opacity:0.46;}.spinner-cls-7{opacity:0.35;}.spinner-cls-8{opacity:0.26;}</style></defs><title>Asset 3</title><g id="Layer_2" data-name="Layer 2"><g id="Layer_1-2" data-name="Layer 1"><g id="Layer_1-2-2" data-name="Layer 1-2"><path class="spinner-cls-1" d="M35.75,5.65l-3,3-1.59,1.57c-.59.6-.56.26-1.27-.28a14.56,14.56,0,0,0-3.74-2.07,13.83,13.83,0,0,0-2-.57A10.19,10.19,0,0,1,22,7c-.12-.14,0-1,0-1.14V0A21.26,21.26,0,0,1,35.75,5.65Z"/><path class="spinner-cls-2" d="M6.78,5.68A21.31,21.31,0,0,1,20.48,0V6.17c0,.12.13.7,0,.84a4,4,0,0,1-1.33.14,14,14,0,0,0-1.59.33,14.29,14.29,0,0,0-5.82,3.17Z"/><path class="spinner-cls-3" d="M0,20.43A21.38,21.38,0,0,1,5.69,6.73l4.36,4.36c.08.08.58.38.59.59s-.66.83-.79,1A13.16,13.16,0,0,0,9,14a14.23,14.23,0,0,0-2,6.48Z"/><path class="spinner-cls-4" d="M5.68,35.72A21.31,21.31,0,0,1,0,22H6.19c.12,0,.7-.13.84,0a4,4,0,0,1,.14,1.33,14,14,0,0,0,.33,1.59,14.32,14.32,0,0,0,3.15,5.82Z"/><path class="spinner-cls-5" d="M20.5,42.5A21.32,21.32,0,0,1,6.78,36.81l4.36-4.36c.08-.08.38-.58.59-.59s.83.66,1,.79a13.16,13.16,0,0,0,1.32.88,14.11,14.11,0,0,0,6.45,1.95Z"/><path class="spinner-cls-6" d="M35.72,36.82A21.31,21.31,0,0,1,22,42.5V36.31c0-.12-.13-.7,0-.84a4,4,0,0,1,1.32-.14,14.65,14.65,0,0,0,1.6-.33,14.22,14.22,0,0,0,5.81-3.15Z"/><path class="spinner-cls-7" d="M42.5,22a21.38,21.38,0,0,1-5.69,13.7l-4.39-4.34c-.08-.08-.58-.38-.59-.59s.66-.83.79-1a13.16,13.16,0,0,0,.88-1.32,14.3,14.3,0,0,0,2-6.45Z"/><path class="spinner-cls-8" d="M36.82,6.78a21.31,21.31,0,0,1,5.68,13.7H36.33c-.12,0-.7.13-.84,0a4,4,0,0,1-.14-1.33A14,14,0,0,0,35,17.56a14.29,14.29,0,0,0-3.17-5.82Z"/></g></g></g></svg>