<svg xmlns="http://www.w3.org/2000/svg" viewBox="0 0 42.5 42.5"><defs><style>.cls-1,.cls-2,.cls-3,.cls-4,.cls-5,.cls-6,.cls-7,.cls-8{fill:#fff;isolation:isolate;}.cls-1{opacity:0.2;}.cls-2{opacity:0.95;}.cls-3{opacity:0.88;}.cls-4{opacity:0.76;}.cls-5{opacity:0.6;}.cls-6{opacity:0.46;}.cls-7{opacity:0.35;}.cls-8{opacity:0.26;}</style></defs><title>Asset 1</title><g id="Layer_2" data-name="Layer 2"><g id="Layer_1-2" data-name="Layer 1"><g id="Layer_1-2-2" data-name="Layer 1-2"><path class="cls-1" d="M20.48,0V5.88c0,.16.12,1,0,1.14a10.19,10.19,0,0,1-2.13.28,13.83,13.83,0,0,0-2,.57,14.56,14.56,0,0,0-3.74,2.07c-.71.54-.68.88-1.27.28L9.75,8.65l-3-3A21.26,21.26,0,0,1,20.48,0Z"/><path class="cls-2" d="M30.76,10.65a14.29,14.29,0,0,0-5.82-3.17,14,14,0,0,0-1.59-.33A4,4,0,0,1,22,7c-.13-.14,0-.72,0-.84V0a21.31,21.31,0,0,1,13.7,5.68Z"/><path class="cls-3" d="M35.48,20.48A14.23,14.23,0,0,0,33.53,14a13.16,13.16,0,0,0-.88-1.32c-.13-.17-.8-.79-.79-1s.51-.51.59-.59l4.36-4.36a21.38,21.38,0,0,1,5.69,13.7Z"/><path class="cls-4" d="M31.85,30.76A14.32,14.32,0,0,0,35,24.94a14,14,0,0,0,.33-1.59A4,4,0,0,1,35.47,22c.14-.13.72,0,.84,0H42.5a21.31,21.31,0,0,1-5.68,13.7Z"/><path class="cls-5" d="M22,35.48a14.11,14.11,0,0,0,6.45-1.95,13.16,13.16,0,0,0,1.32-.88c.17-.13.79-.8,1-.79s.51.51.59.59l4.36,4.36A21.32,21.32,0,0,1,22,42.5Z"/><path class="cls-6" d="M11.75,31.85A14.22,14.22,0,0,0,17.56,35a14.65,14.65,0,0,0,1.6.33,4,4,0,0,1,1.32.14c.13.14,0,.72,0,.84V42.5a21.31,21.31,0,0,1-13.7-5.68Z"/><path class="cls-7" d="M7,22a14.3,14.3,0,0,0,2,6.45,13.16,13.16,0,0,0,.88,1.32c.13.17.8.79.79,1s-.51.51-.59.59L5.69,35.7A21.38,21.38,0,0,1,0,22Z"/><path class="cls-8" d="M10.65,11.74a14.29,14.29,0,0,0-3.17,5.82,14,14,0,0,0-.33,1.59A4,4,0,0,1,7,20.48c-.14.13-.72,0-.84,0H0A21.31,21.31,0,0,1,5.68,6.78Z"/></g></g></g></svg>